<svg id="Layer_1" data-name="Layer 1" xmlns="http://www.w3.org/2000/svg" xmlns:xlink="http://www.w3.org/1999/xlink" viewBox="0 0 1241.13 648.68"><defs><style>.cls-1{fill:#8e8e8e;}.cls-2{fill:url(#Áåçûìÿííûé_ãðàäèåíò_86);}</style><linearGradient id="Áåçûìÿííûé_ãðàäèåíò_86" x1="731.31" y1="877.66" x2="1268.55" y2="877.66" gradientUnits="userSpaceOnUse"><stop offset="0" stop-color="#8ee7ff"/><stop offset="0.2" stop-color="#56adff"/><stop offset="0.48" stop-color="#3085de"/><stop offset="0.76" stop-color="#56adff"/><stop offset="1" stop-color="#3085de"/></linearGradient></defs><path class="cls-1" d="M373.91,1227.77c0-34.11,26.19-58.52,61.42-58.52,19.56,0,35.89,7.11,46.56,20l-16.81,15.52c-7.6-8.73-17.14-13.25-28.45-13.25-21.18,0-36.21,14.87-36.21,36.21s15,36.2,36.21,36.2c11.31,0,20.85-4.52,28.45-13.41l16.81,15.52c-10.67,13.09-27,20.2-46.72,20.2C400.1,1286.28,373.91,1261.87,373.91,1227.77Zm141.93,42,14.54-17.45c6.15,8.24,12.94,12.44,21,12.44,10.5,0,16-6.3,16-18.75V1192.2h-.28v-21h26.31v73.39c0,28-14.07,41.7-40.74,41.7C537.5,1286.28,524.08,1280.46,515.84,1269.79Zm233.9-57.54c0,25.21-18.92,40.89-49.14,40.89H677.81v31.2H651.62V1171.19h49C730.82,1171.19,749.74,1186.87,749.74,1212.25Zm-26.51,0c0-12.45-8.08-19.72-24.09-19.72H677.81v39.28h21.33C715.15,1231.81,723.23,1224.53,723.23,1212.25ZM956.81,1226h23.92v45.9c-12.44,9.38-29.58,14.39-45.74,14.39-35.56,0-61.75-24.41-61.75-58.51s26.19-58.52,62.23-58.52c19.88,0,36.37,6.79,47.36,19.56L966,1204.33c-8.24-8.73-17.78-12.77-29.26-12.77-22,0-37,14.71-37,36.21,0,21.17,15,36.2,36.69,36.2a41.55,41.55,0,0,0,20.37-4.85Zm152.6,58.35-21.83-31.52H1063.5v31.52h-26.19V1171.19h49c30.23,0,49.14,15.68,49.14,41.06,0,17-8.57,29.42-23.28,35.72l25.38,36.37Zm-24.57-91.81H1063.5V1232h21.34c16,0,24.08-7.44,24.08-19.72C1108.92,1199.8,1100.84,1192.53,1084.84,1192.53Zm96.5,35.24c0-33.63,26.19-58.52,61.91-58.52,35.56,0,61.91,24.73,61.91,58.52s-26.35,58.51-61.91,58.51C1207.53,1286.28,1181.34,1261.39,1181.34,1227.77Zm97.31,0c0-21.5-15.19-36.21-35.4-36.21s-35.4,14.71-35.4,36.21,15.19,36.2,35.4,36.2S1278.65,1249.26,1278.65,1227.77Zm77.59,6.78v-63.36h26.19v62.39c0,21.5,9.38,30.39,25.22,30.39,16,0,25.21-8.89,25.21-30.39v-62.39h25.87v63.36c0,33.3-19.08,51.73-51.25,51.73S1356.24,1267.85,1356.24,1234.55Zm258.8-22.3c0,25.21-18.91,40.89-49.14,40.89h-22.79v31.2h-26.19V1171.19h49C1596.13,1171.19,1615,1186.87,1615,1212.25Zm-26.51,0c0-12.45-8.08-19.72-24.08-19.72h-21.34v39.28h21.34C1580.45,1231.81,1588.53,1224.53,1588.53,1212.25Z" transform="translate(-373.91 -637.6)"/><path class="cls-2" d="M1095.27,637.6H904.57q-3.23,0-6.42.12c-92.57,3.38-166.84,79.76-166.84,173.16v73.31c0,84.07,60.16,154.34,139.7,170h0c2.56.51,5.15,1,7.75,1.35,1.41.2,2.81.4,4.22.57,24.37-3.22,42-11,54.66-21.06a79.25,79.25,0,0,0,21.68-26.42A98.14,98.14,0,0,0,969.39,971V721.5h50.17V923.4h71.12a38.56,38.56,0,0,0,38.51-38.51V810.17a38.56,38.56,0,0,0-38.51-38.51h-51.55V721.5h51.55a88.67,88.67,0,0,1,88.68,88.67v74.72a88.68,88.68,0,0,1-88.68,88.68h-71.12s3.52,37.77-13.3,70.29a1.12,1.12,0,0,1,0,.13,61.92,61.92,0,0,1-8.54,13.47c-6.55,8.51-15.63,16.41-26.76,24.11a196.65,196.65,0,0,1-38.61,20.34,317.93,317.93,0,0,1-53.41,15.71c181,3,204.5-60.16,204.5-60.16h11.88c95.55,0,173.28-77.73,173.28-173.27V810.88C1268.55,715.33,1190.82,637.6,1095.27,637.6ZM896.92,653.91a29,29,0,1,1-29,29A29,29,0,0,1,896.92,653.91Zm52.37,117.75H897.12a38.55,38.55,0,0,0-38.49,38.51v74.72a38.55,38.55,0,0,0,38.49,38.51h52.17v50.17H897.12a88.67,88.67,0,0,1-88.66-88.68V810.17a88.66,88.66,0,0,1,88.66-88.67h52.17ZM994.48,712a29,29,0,1,1,29-29A29,29,0,0,1,994.48,712Zm97.56,0a29,29,0,1,1,29-29A29,29,0,0,1,1092,712Z" transform="translate(-373.91 -637.6)"/></svg>