<?xml version="1.0" encoding="utf-8"?>
<!-- Generator: Adobe Illustrator 25.0.0, SVG Export Plug-In . SVG Version: 6.00 Build 0)  -->
<svg version="1.1" id="Layer_1" xmlns="http://www.w3.org/2000/svg" xmlns:xlink="http://www.w3.org/1999/xlink" x="0px" y="0px"
	 viewBox="0 0 2000 2000" style="enable-background:new 0 0 2000 2000;" xml:space="preserve">
<style type="text/css">
	.st0{fill:url(#SVGID_1_);}
</style>
<rect width="2000" height="2000"/>
<linearGradient id="SVGID_1_" gradientUnits="userSpaceOnUse" x1="370.3612" y1="998.4141" x2="1648.8369" y2="998.4141">
	<stop  offset="0" style="stop-color:#F9DF7B"/>
	<stop  offset="0.2038" style="stop-color:#B57E10"/>
	<stop  offset="0.2439" style="stop-color:#B78114"/>
	<stop  offset="0.2826" style="stop-color:#BF8C1F"/>
	<stop  offset="0.3208" style="stop-color:#CB9E33"/>
	<stop  offset="0.3586" style="stop-color:#DDB64E"/>
	<stop  offset="0.3958" style="stop-color:#F3D671"/>
	<stop  offset="0.4052" style="stop-color:#F9DF7B"/>
	<stop  offset="0.5481" style="stop-color:#FFF3A6"/>
	<stop  offset="0.6896" style="stop-color:#F9DF7B"/>
	<stop  offset="0.8428" style="stop-color:#B57E10"/>
	<stop  offset="0.9493" style="stop-color:#E5C35C"/>
	<stop  offset="1" style="stop-color:#F9DF7B"/>
</linearGradient>
<path class="st0" d="M1011.02,558.48c-297.6,0-538.88,241.28-538.88,538.88s241.28,538.88,538.88,538.88
	s538.88-241.28,538.88-538.88S1308.63,558.48,1011.02,558.48z M1011.02,1590.86c-272.11,0-493.5-221.39-493.5-493.5
	s221.39-493.5,493.5-493.5s493.5,221.39,493.5,493.5S1283.13,1590.86,1011.02,1590.86z M1009.61,360.59l-639.25,1107.2h1278.48
	L1009.61,360.59z M1009.61,451.35l560.63,971.06H448.98L1009.61,451.35z M1270.18,1166.1c-3.2-2.69-6.69-5.16-10.44-7.32
	c-10.15-5.87-21.16-8.96-32.13-9.53c-17.92-0.91-35.79,4.96-49.72,16.56l-56.72-32.73c6.86-21.21,7.49-43.99,1.56-66.08
	c-8.11-30.23-27.48-55.5-54.54-71.13c-11.2-6.47-23.34-11-35.91-13.47v-62.45c18.75-5.62,34.29-18.75,43.14-35.85
	c5.11-9.84,8-21.04,8-32.87c0-4.23-0.37-8.37-1.11-12.39c-5.84-33.69-35.31-59.39-70.65-59.39c-35.23,0-64.58,25.5-70.59,59.02
	c-114.16,30.74-198.14,134.97-198.14,258.86c0,23.31,2.98,45.89,8.59,67.45v0.03c-26.26,21.92-33.78,60.3-16.11,90.93
	c17.64,30.52,54.46,43.2,86.5,31.62c48.47,48.27,115.29,78.08,189.12,78.08c73.29,0,139.71-29.41,188.1-77.12
	c32.16,11.8,69.18-0.88,86.87-31.51C1303.64,1226.28,1296.21,1188.05,1270.18,1166.1z M1045.49,1035.18
	c34.26,19.77,46.03,63.76,26.26,98.02c-19.8,34.26-63.76,46.06-98.05,26.26c-34.26-19.77-46.03-63.76-26.26-98.02
	C967.24,1027.18,1011.2,1015.38,1045.49,1035.18z M996.51,829.61c4.28-3.03,9.5-4.79,15.15-4.79c5.7,0,10.95,1.79,15.26,4.88
	c6.72,4.76,11.12,12.65,11.12,21.53c0,10.41-6.04,19.4-14.81,23.71c-3.49,1.7-7.4,2.67-11.57,2.67c-4.2,0-8.17-0.99-11.69-2.72
	c-8.71-4.31-14.69-13.3-14.69-23.65C985.28,842.29,989.7,834.37,996.51,829.61z M810.77,1242.67c-7.74,4.48-16.79,4.57-24.33,1.08
	c-4.74-2.21-8.91-5.84-11.71-10.72c-2.84-4.91-3.91-10.32-3.4-15.57c-0.03-0.03-0.03-0.03,0-0.03v-0.06
	c0.77-8.22,5.36-15.97,13.07-20.39c9.05-5.22,19.91-4.48,27.99,0.99c0.03,0,0.03,0.06,0.03,0.06c3.18,2.13,5.96,5.05,8,8.59
	c2.07,3.57,3.2,7.43,3.46,11.29C824.61,1227.67,819.81,1237.46,810.77,1242.67z M794.18,1148.17c-3.83-16.34-5.87-33.35-5.87-50.85
	c0-100.83,67.36-186.23,159.42-213.57c8.17,16.02,22.18,28.56,39.2,34.83v63.84c-32.79,6.52-61.77,26.89-78.79,56.33
	c-17.92,31.08-19.97,67.05-8.62,98.42l-52.72,30.43C832.52,1154.18,813.4,1147.26,794.18,1148.17z M1011.03,1320.05
	c-59.31,0-113.28-23.31-153.21-61.23c9.7-15.06,13.53-33.41,10.47-51.25l54.57-31.51c7.94,8.76,17.36,16.48,28.16,22.72
	c17.78,10.27,37.98,15.68,58.45,15.68c34.83,0,67.67-15.57,89.71-41.69l54.85,31.65c-4.51,19-0.96,38.97,9.39,55.16
	C1123.57,1297.04,1069.94,1320.05,1011.03,1320.05z M1246.69,1234.11c-2.84,4.93-7.03,8.59-11.83,10.75
	c-7.52,3.49-16.54,3.35-24.22-1.08c-9.08-5.25-13.87-15.12-13.1-24.93c0-0.03,0-0.06,0.03-0.09c0.28-3.77,1.39-7.54,3.43-11.03
	c2.07-3.6,4.88-6.55,8.14-8.74c8.08-5.42,18.89-6.13,27.91-0.94c7.74,4.48,12.39,12.31,13.07,20.62
	C1250.58,1223.87,1249.5,1229.26,1246.69,1234.11z"/>
</svg>
