<svg id="Layer_1" data-name="Layer 1" xmlns="http://www.w3.org/2000/svg" viewBox="0 0 1894.23 528.16"><defs><style>.cls-1{fill:#132e1f;}.cls-2{fill:#f9ffab;}</style></defs><path class="cls-1" d="M700.63,865.77h66l-75,99.87,78.16,101.9h-68L628.66,966.59" transform="translate(-35.39 -735.92)"/><path class="cls-1" d="M1461.76,865.77h66l-75,99.87,78.16,101.9h-68l-73.13-100.95" transform="translate(-35.39 -735.92)"/><polygon class="cls-1" points="969.35 331.62 912.03 331.62 857.61 216.12 803.19 331.62 745.87 331.62 857.61 116.24 969.35 331.62"/><polygon class="cls-1" points="1354.4 331.62 1297.08 331.62 1242.66 216.12 1188.24 331.62 1130.92 331.62 1242.66 116.24 1354.4 331.62"/><polygon class="cls-1" points="1739.45 331.62 1682.13 331.62 1627.71 216.12 1573.29 331.62 1515.97 331.62 1627.71 116.24 1739.45 331.62"/><path class="cls-1" d="M1019.67,1067.54V865.77h55v152h76.71v49.79Z" transform="translate(-35.39 -735.92)"/><path class="cls-1" d="M1797.91,1067.54V865.77h55v152h76.71v49.79Z" transform="translate(-35.39 -735.92)"/><polygon class="cls-1" points="138.29 395.57 138.29 395.57 138.29 395.57 138.29 395.57"/><path class="cls-1" d="M577.13,924.41,469,856.47,426.79,735.92,306.24,778.11,185.7,735.94,143.52,856.49l-108.13,68,68,108.13L89.07,1159.51,216,1173.78l90.3,90.3,0,0,0,0,90.27-90.31,126.9-14.31-14.31-126.91Zm-74.64,48.73-19.55,2.2,5.93,52.58-28.15,44.79,16.66,10.47,15-23.91,9.34,82.85-82.85,9.34,20-20L425,1117.56l0,0-37.4,37.4L335,1160.91l2.21,19.55,28.06-3.16-58.94,58.94-59-58.93,28.06,3.16,2.2-19.55L225,1155l-37.42-37.41h0l0,0-13.91,13.9,20,20-82.85-9.32,9.32-82.86,15,23.91,16.65-10.47L123.67,1028l5.91-52.57L110,973.18l-3.16,28.06L62.51,930.65l70.6-44.38-9.33,26.66,18.57,6.5,17.47-49.95,44.79-28.15-10.46-16.65-23.92,15L197.77,761l78.7,27.54-26.65,9.32,6.5,18.56L306.25,799l49.94,17.47,6.49-18.57L336,788.53,414.73,761l27.54,78.7-23.91-15-10.47,16.65,44.8,28.15,17.48,49.93,18.56-6.5-9.32-26.65L550,930.6l-44.36,70.6Z" transform="translate(-35.39 -735.92)"/><polygon class="cls-2" points="514.62 194.68 470.26 265.28 467.1 237.22 447.55 239.42 453.48 292 425.33 336.8 441.98 347.26 457.01 323.35 466.35 406.2 383.5 415.54 403.48 395.55 389.57 381.64 389.55 381.67 352.14 419.07 299.57 425 301.77 444.54 329.84 441.38 270.89 500.32 211.94 441.39 240.01 444.55 242.21 425 189.64 419.09 152.22 381.68 152.22 381.69 152.2 381.67 138.29 395.57 158.28 415.56 75.43 406.24 84.75 323.38 99.78 347.29 116.43 336.82 88.28 292.03 94.19 239.46 74.65 237.26 71.49 265.32 27.12 194.73 97.72 150.35 88.39 177.01 106.96 183.51 124.42 133.56 169.22 105.41 158.75 88.76 134.84 103.79 162.38 25.08 241.08 52.62 214.43 61.94 220.93 80.5 270.86 63.03 320.8 80.5 327.29 61.93 300.64 52.61 379.34 25.06 406.88 103.76 382.97 88.74 372.5 105.39 417.3 133.54 434.78 183.47 453.34 176.97 444.02 150.32 514.62 194.68"/></svg>