<svg id="Layer_1" data-name="Layer 1" xmlns="http://www.w3.org/2000/svg" viewBox="0 0 1878.18 1831.1"><defs><style>.cls-1{fill:#132e1f;}.cls-2{fill:#f9ffab;}</style></defs><polygon class="cls-1" points="479.44 1371.44 479.44 1371.44 479.44 1371.44 479.44 1371.44"/><path class="cls-1" d="M1939.09,782.76,1564.15,547.21,1417.88,129.28,999.94,275.55,582,129.36,435.79,547.29,60.91,782.93l235.63,374.88-49.52,440,440,49.5L1000,1960.38l.08-.09.09.09,313-313.12,440-49.58-49.61-440ZM1680.3,951.7l-67.76,7.65,20.54,182.27-97.57,155.31,57.73,36.28,52.09-82.91,32.39,287.26-287.23,32.36,69.27-69.3-48.22-48.22-.09.09-129.67,129.68-182.28,20.54,7.65,67.77,97.28-11-204.34,204.35L795.71,1659.57,893,1670.51l7.62-67.77-182.27-20.51L588.66,1452.55v0l-.09-.08-48.21,48.22,69.3,69.3-287.24-32.34,32.31-287.26,52.11,82.89L464.58,1297,367,1141.73l20.48-182.27-67.73-7.62-11,97.29L154.93,804.38,399.68,650.55,367.35,743l64.38,22.53,60.55-173.15,155.31-97.6L611.3,437,528.39,489.1l95.47-272.88,272.86,95.47L804.32,344l22.53,64.36L1000,347.8l173.12,60.55L1195.6,344l-92.4-32.34,272.85-95.5L1471.55,489l-82.91-52.08-36.29,57.73,155.31,97.57,60.61,173.13,64.36-22.53-32.34-92.41,244.78,153.78L1691.27,1049Z" transform="translate(-60.91 -129.28)"/><polygon class="cls-2" points="1784.16 674.93 1630.36 919.71 1619.39 822.43 1551.63 830.07 1572.17 1012.34 1474.6 1167.65 1532.34 1203.93 1584.42 1121.02 1616.81 1408.28 1329.58 1440.65 1398.85 1371.35 1350.63 1323.13 1350.55 1323.21 1220.87 1452.89 1038.6 1473.43 1046.24 1541.2 1143.53 1530.23 939.18 1734.58 734.8 1530.29 832.12 1541.23 839.73 1473.46 657.46 1452.95 527.75 1323.27 527.75 1323.3 527.67 1323.21 479.45 1371.43 548.75 1440.73 261.52 1408.4 293.82 1121.14 345.93 1204.02 403.67 1167.73 306.07 1012.46 326.56 830.18 258.82 822.57 247.85 919.86 94.02 675.1 338.77 521.27 306.44 613.67 370.82 636.21 431.37 463.05 586.68 365.45 550.4 307.72 467.49 359.83 562.96 86.94 835.81 182.41 743.41 214.75 765.94 279.11 939.06 218.53 1112.19 279.08 1134.69 214.72 1042.29 182.39 1315.14 86.89 1410.64 359.74 1327.73 307.66 1291.45 365.4 1446.76 462.97 1507.36 636.09 1571.72 613.56 1539.38 521.16 1784.16 674.93"/></svg>